# Blender 5.2.0 LTS
# www.blender.org
mtllib Floor.mtl
o Floor
v -3.257500 0.000000 1.000000
v 3.257500 0.000000 1.000000
v -3.257500 0.000000 -1.000000
v 3.257500 0.000000 -1.000000
v -3.257500 -0.141879 -1.000000
v -3.257500 -0.141879 1.000000
v 3.257500 -0.141879 1.000000
v 3.257500 -0.141879 -1.000000
vn -0.0000 1.0000 -0.0000
vn -0.0000 -1.0000 -0.0000
vn 1.0000 -0.0000 -0.0000
vn -1.0000 -0.0000 -0.0000
vn -0.0000 -0.0000 -1.0000
vn -0.0000 -0.0000 1.0000
vt -0.613968 -2.000000
vt 0.920952 3.000000
vt -0.613968 3.000000
vt 0.920952 -2.000000
s 0
usemtl multicolored_pebble_floor
f 2/1/1 3/2/1 1/3/1
f 5/2/2 7/1/2 6/3/2
f 7/1/3 4/4/3 2/1/3
f 5/2/4 1/3/4 3/2/4
f 8/4/5 3/2/5 4/4/5
f 6/3/6 2/1/6 1/3/6
f 2/1/1 4/4/1 3/2/1
f 5/2/2 8/4/2 7/1/2
f 7/1/3 8/4/3 4/4/3
f 5/2/4 6/3/4 1/3/4
f 8/4/5 5/2/5 3/2/5
f 6/3/6 7/1/6 2/1/6
