# Blender 5.2.0 LTS
# www.blender.org
mtllib Plank.mtl
o Plank
v -0.525617 0.266711 0.004483
v -0.541146 0.235654 -0.004483
v -0.274435 0.266711 -0.430578
v -0.289964 0.235654 -0.439543
v -0.172883 0.031554 0.208134
v -0.188411 0.000497 0.199169
v 0.078300 0.031554 -0.226926
v 0.062771 0.000497 -0.235892
vn -0.7500 0.5000 -0.4330
vn 0.5000 -0.0000 -0.8660
vn 0.7500 -0.5000 0.4330
vn -0.5000 -0.0000 0.8660
vn 0.4330 0.8660 0.2500
vn -0.4330 -0.8660 -0.2500
vt 0.000000 0.500000
vt 0.500000 0.000000
vt 0.500000 0.500000
vt 0.500000 0.000000
vt 0.734049 0.500000
vt 0.500000 0.500000
vt 0.000000 1.000000
vt 0.500000 0.500000
vt 0.500000 1.000000
vt 0.734049 0.500000
vt 0.968099 0.000000
vt 0.968099 0.500000
vt 0.734049 1.000000
vt 0.968099 1.000000
vt 0.500000 1.000000
vt 0.734049 0.500000
vt 0.734049 1.000000
vt 0.000000 0.000000
vt 0.734049 0.000000
vt 0.000000 0.500000
vt 0.734049 0.000000
vt 0.734049 0.500000
vt 0.500000 0.500000
s 0
usemtl japanese_cedar_planks
f 2/1/1 1/3/1 3/2/1
f 4/4/2 3/6/2 7/5/2
f 8/7/3 7/9/3 5/8/3
f 5/10/4 1/12/4 2/11/4
f 7/13/5 3/14/5 1/12/5
f 4/15/6 8/17/6 6/16/6
f 2/1/1 3/2/1 4/18/1
f 4/4/2 7/5/2 8/19/2
f 8/7/3 5/8/3 6/20/3
f 5/10/4 2/11/4 6/21/4
f 7/13/5 1/12/5 5/22/5
f 4/15/6 6/16/6 2/23/6
