# Blender 5.2.0 LTS
# www.blender.org
mtllib Wall.mtl
o Wall
v -3.257500 1.235880 -1.022184
v 3.257500 1.235880 -1.022184
v -3.257500 -0.764120 -1.022184
v 3.257500 -0.764120 -1.022184
v -3.257500 -0.764120 -1.305030
v -3.257500 1.235880 -1.305030
v 3.257500 1.235880 -1.305030
v 3.257500 -0.764120 -1.305030
vn -0.0000 -0.0000 1.0000
vn -0.0000 -0.0000 -1.0000
vn -0.0000 -1.0000 -0.0000
vn -0.0000 1.0000 -0.0000
vn 1.0000 -0.0000 -0.0000
vn -1.0000 -0.0000 -0.0000
vt -2.346508 1.267460
vt 2.653492 -0.267460
vt -2.346508 -0.267460
vt 2.653492 1.267460
s 0
usemtl stacked_brick_wall
f 3/1/1 2/2/1 1/3/1
f 7/2/2 5/1/2 6/3/2
f 3/1/3 8/4/3 4/4/3
f 2/2/4 6/3/4 1/3/4
f 4/4/5 7/2/5 2/2/5
f 1/3/6 5/1/6 3/1/6
f 3/1/1 4/4/1 2/2/1
f 7/2/2 8/4/2 5/1/2
f 3/1/3 5/1/3 8/4/3
f 2/2/4 7/2/4 6/3/4
f 4/4/5 8/4/5 7/2/5
f 1/3/6 6/3/6 5/1/6
