# Blender v3.6.5 OBJ File: 'untitled.blend'
# www.blender.org
mtllib Cube.mtl
o Cube
v 1.019687 1.356019 0.897059
v 1.019687 -0.643981 0.897059
v -0.980313 1.356019 0.897059
v -0.980313 -0.643981 0.897059
v 1.019687 1.356019 -1.102941
v 1.019687 -0.643981 -1.102941
v -0.980313 1.356019 -1.102941
v -0.980313 -0.643981 -1.102941
vt 1.005434 2.000600
vt -0.002838 1.002814
vt 1.005434 1.002814
vt -1.011110 0.005029
vt -0.002838 0.005029
vt 3.021978 1.002814
vt 2.013706 0.005028
vt 3.021978 0.005029
vt 1.005434 0.005028
vt -0.002838 -0.992757
vt 1.005434 -0.992757
vt 2.013706 1.002814
vt -0.002838 2.000600
vt -1.011110 1.002814
vn 0.0000 1.0000 0.0000
vn -1.0000 0.0000 0.0000
vn 0.0000 0.0000 -1.0000
vn 0.0000 -1.0000 0.0000
vn 0.0000 0.0000 1.0000
vn 1.0000 0.0000 0.0000
usemtl Material
s off
f 5/1/1 3/2/1 1/3/1
f 3/2/2 8/4/2 4/5/2
f 7/6/3 6/7/3 8/8/3
f 2/9/4 8/10/4 6/11/4
f 1/3/5 4/5/5 2/9/5
f 5/12/6 2/9/6 6/7/6
f 5/1/1 7/13/1 3/2/1
f 3/2/2 7/14/2 8/4/2
f 7/6/3 5/12/3 6/7/3
f 2/9/4 4/5/4 8/10/4
f 1/3/5 3/2/5 4/5/5
f 5/12/6 1/3/6 2/9/6
