# Blender v3.6.0 OBJ File: 'untitled.blend'
# www.blender.org
mtllib Cube.001.mtl
o Cube.001
v 1.000000 -3.253303 -4.814793
v 1.000000 -5.253303 -4.814793
v 1.000000 -3.253303 -2.814793
v 1.000000 -5.253303 -2.814793
v -1.000000 -3.253303 -4.814793
v -1.000000 -5.253303 -4.814793
v -1.000000 -3.253303 -2.814793
v -1.000000 -5.253303 -2.814793
v 1.000000 4.431551 -4.814793
v 1.000000 2.431551 -4.814793
v 1.000000 4.431551 -2.814793
v 1.000000 2.431551 -2.814793
v -1.000000 4.431551 -4.814793
v -1.000000 2.431551 -4.814793
v -1.000000 4.431551 -2.814793
v -1.000000 2.431551 -2.814793
vt 0.994306 1.996158
vt -0.000744 0.992131
vt 0.994305 0.992131
vt -0.995793 -0.011895
vt -0.000744 -0.011895
vt 2.984404 0.992131
vt 1.989355 -0.011895
vt 2.984404 -0.011896
vt 0.994305 -0.011895
vt -0.000744 -1.015922
vt 0.994305 -1.015922
vt 1.989355 0.992131
vt -0.000744 1.996158
vt -0.995793 0.992132
vt 0.875000 0.500000
vt 0.625000 0.750000
vt 0.625000 0.500000
vt 0.375000 1.000000
vt 0.375000 0.750000
vt 0.625000 0.000000
vt 0.375000 0.250000
vt 0.375000 0.000000
vt 0.375000 0.500000
vt 0.125000 0.750000
vt 0.125000 0.500000
vt 0.625000 0.250000
vt 0.875000 0.750000
vt 0.625000 1.000000
vn 0.0000 1.0000 0.0000
vn 0.0000 0.0000 1.0000
vn -1.0000 0.0000 0.0000
vn 0.0000 -1.0000 0.0000
vn 1.0000 0.0000 0.0000
vn 0.0000 0.0000 -1.0000
usemtl Material.001
s off
f 5/1/1 3/2/1 1/3/1
f 3/2/2 8/4/2 4/5/2
f 7/6/3 6/7/3 8/8/3
f 2/9/4 8/10/4 6/11/4
f 1/3/5 4/5/5 2/9/5
f 5/12/6 2/9/6 6/7/6
f 5/1/1 7/13/1 3/2/1
f 3/2/2 7/14/2 8/4/2
f 7/6/3 5/12/3 6/7/3
f 2/9/4 4/5/4 8/10/4
f 1/3/5 3/2/5 4/5/5
f 5/12/6 1/3/6 2/9/6
usemtl Material.002
f 13/15/1 11/16/1 9/17/1
f 11/16/2 16/18/2 12/19/2
f 15/20/3 14/21/3 16/22/3
f 10/23/4 16/24/4 14/25/4
f 9/17/5 12/19/5 10/23/5
f 13/26/6 10/23/6 14/21/6
f 13/15/1 15/27/1 11/16/1
f 11/16/2 15/28/2 16/18/2
f 15/20/3 13/26/3 14/21/3
f 10/23/4 12/19/4 16/24/4
f 9/17/5 11/16/5 12/19/5
f 13/26/6 9/17/6 10/23/6
